<?xml version="1.0" encoding="UTF-8"?>
<svg width="400" height="400" viewBox="0 0 400 400" xmlns="http://www.w3.org/2000/svg">
  <defs>
    <linearGradient id="bgGradient" x1="0%" y1="0%" x2="100%" y2="100%">
      <stop offset="0%" style="stop-color:#1a1a2e"/>
      <stop offset="100%" style="stop-color:#16213e"/>
    </linearGradient>
    <linearGradient id="glowGradient" x1="0%" y1="0%" x2="100%" y2="100%">
      <stop offset="0%" style="stop-color:#ff69b4;stop-opacity:0.8"/>
      <stop offset="100%" style="stop-color:#ff1493;stop-opacity:0.4"/>
    </linearGradient>
    <filter id="glow">
      <feGaussianBlur stdDeviation="3" result="coloredBlur"/>
      <feMerge>
        <feMergeNode in="coloredBlur"/>
        <feMergeNode in="SourceGraphic"/>
      </feMerge>
    </filter>
  </defs>
  
  <!-- Background -->
  <rect width="400" height="400" fill="url(#bgGradient)"/>
  
  <!-- Digital particles -->
  <g fill="#ff69b4" opacity="0.3">
    <circle cx="50" cy="80" r="2"/>
    <circle cx="350" cy="120" r="1.5"/>
    <circle cx="80" cy="300" r="2"/>
    <circle cx="320" cy="350" r="1"/>
    <circle cx="150" cy="50" r="1.5"/>
    <circle cx="280" cy="380" r="2"/>
  </g>
  
  <!-- Code streams -->
  <g fill="#00ff88" opacity="0.4" font-family="monospace" font-size="10">
    <text x="30" y="100">10110</text>
    <text x="340" y="200">01001</text>
    <text x="20" y="250">11010</text>
    <text x="360" y="320">01101</text>
  </g>
  
  <!-- Main circular frame -->
  <circle cx="200" cy="200" r="140" fill="url(#glowGradient)" opacity="0.2"/>
  <circle cx="200" cy="200" r="130" fill="none" stroke="#ff69b4" stroke-width="3" filter="url(#glow)"/>
  
  <!-- Cupcake icon -->
  <g transform="translate(200, 200)">
    <!-- Cupcake base -->
    <path d="M-40,20 L40,20 L30,50 L-30,50 Z" fill="#8B4513"/>
    <!-- Frosting -->
    <path d="M-50,20 Q-50,-20 0,-30 Q50,-20 50,20 Z" fill="#ff69b4"/>
    <!-- Cherry/sprinkle -->
    <circle cx="0" cy="-35" r="8" fill="#ff0000"/>
    <!-- Sprinkles -->
    <rect x="-20" y="-10" width="6" height="2" fill="#fff" transform="rotate(45)"/>
    <rect x="10" y="5" width="6" height="2" fill="#00ff00" transform="rotate(-30)"/>
    <rect x="-5" y="-20" width="6" height="2" fill="#ffff00" transform="rotate(20)"/>
  </g>
  
  <!-- Pink bows -->
  <g fill="#ff69b4" filter="url(#glow)">
    <!-- Left bow -->
    <path d="M60,120 Q40,100 60,80 Q80,100 60,120"/>
    <path d="M60,120 Q80,100 100,80 Q80,100 60,120"/>
    <circle cx="60" cy="100" r="5" fill="#ff1493"/>
    
    <!-- Right bow -->
    <path d="M340,120 Q320,100 340,80 Q360,100 340,120"/>
    <path d="M340,120 Q360,100 380,80 Q360,100 340,120"/>
    <circle cx="340" cy="100" r="5" fill="#ff1493"/>
  </g>
  
  <!-- Crown/apocalypse princess -->
  <g fill="#ffd700" filter="url(#glow)">
    <polygon points="160,60 170,90 180,70 190,90 200,60 210,90 220,70 230,90 240,60" fill="none" stroke="#ffd700" stroke-width="2"/>
  </g>
  
  <!-- Text -->
  <text x="200" y="370" text-anchor="middle" fill="#ff69b4" font-family="sans-serif" font-size="24" font-weight="bold" filter="url(#glow)">CUPCAKE</text>
  <text x="200" y="390" text-anchor="middle" fill="#888" font-family="sans-serif" font-size="10">Princess of Apocalypse</text>
</svg>